<mxfile host="app.diagrams.net" modified="2020-12-22T17:52:24.685Z" agent="5.0 (Windows NT 10.0; Win64; x64) AppleWebKit/537.36 (KHTML, like Gecko) Chrome/87.0.4280.88 Safari/537.36" etag="VEeO_MyQ0jsSnhVzd97V" version="14.1.1" type="github">
  <diagram id="fQU-9Sbg42S6nCLMiV9t" name="Page-1">
    <mxGraphModel dx="1360" dy="802" grid="1" gridSize="10" guides="1" tooltips="1" connect="1" arrows="1" fold="1" page="1" pageScale="1" pageWidth="1100" pageHeight="850" math="0" shadow="0">
      <root>
        <mxCell id="0" />
        <mxCell id="1" parent="0" />
        <mxCell id="DoYQl6slMKIn1db2F5ta-1" value="Your&lt;br style=&quot;font-size: 15px;&quot;&gt;Device" style="rounded=0;whiteSpace=wrap;html=1;fillColor=#dae8fc;strokeColor=#6c8ebf;fontSize=15;" vertex="1" parent="1">
          <mxGeometry x="200" y="160" width="120" height="400" as="geometry" />
        </mxCell>
        <mxCell id="DoYQl6slMKIn1db2F5ta-4" value="Gateway/&lt;br style=&quot;font-size: 13px;&quot;&gt;Hub/&lt;br style=&quot;font-size: 13px;&quot;&gt;Bridge" style="rounded=0;whiteSpace=wrap;html=1;fillColor=#d5e8d4;strokeColor=#82b366;fontSize=13;" vertex="1" parent="1">
          <mxGeometry x="440" y="440" width="120" height="100" as="geometry" />
        </mxCell>
        <mxCell id="DoYQl6slMKIn1db2F5ta-7" value="Sensor&lt;br style=&quot;font-size: 13px;&quot;&gt;Device A" style="ellipse;whiteSpace=wrap;html=1;fillColor=#ffe6cc;strokeColor=#d79b00;fontSize=13;" vertex="1" parent="1">
          <mxGeometry x="660" y="400" width="100" height="60" as="geometry" />
        </mxCell>
        <mxCell id="DoYQl6slMKIn1db2F5ta-8" value="Sensor&lt;br style=&quot;font-size: 13px;&quot;&gt;Device B" style="ellipse;whiteSpace=wrap;html=1;fillColor=#ffe6cc;strokeColor=#d79b00;fontSize=13;" vertex="1" parent="1">
          <mxGeometry x="660" y="490" width="100" height="60" as="geometry" />
        </mxCell>
        <mxCell id="DoYQl6slMKIn1db2F5ta-9" value="Sensor&lt;br style=&quot;font-size: 13px;&quot;&gt;Device XYZ" style="ellipse;whiteSpace=wrap;html=1;fillColor=#ffe6cc;strokeColor=#d79b00;fontSize=13;" vertex="1" parent="1">
          <mxGeometry x="660" y="570" width="100" height="60" as="geometry" />
        </mxCell>
        <mxCell id="DoYQl6slMKIn1db2F5ta-11" value="Sensor&lt;br style=&quot;font-size: 13px;&quot;&gt;Device 1" style="ellipse;whiteSpace=wrap;html=1;fillColor=#fff2cc;strokeColor=#d6b656;fontSize=13;" vertex="1" parent="1">
          <mxGeometry x="450" y="130" width="100" height="60" as="geometry" />
        </mxCell>
        <mxCell id="DoYQl6slMKIn1db2F5ta-12" value="Sensor&lt;br style=&quot;font-size: 13px;&quot;&gt;Device 2" style="ellipse;whiteSpace=wrap;html=1;fillColor=#fff2cc;strokeColor=#d6b656;fontSize=13;" vertex="1" parent="1">
          <mxGeometry x="450" y="210" width="100" height="60" as="geometry" />
        </mxCell>
        <mxCell id="DoYQl6slMKIn1db2F5ta-13" value="Sensor&lt;br style=&quot;font-size: 13px;&quot;&gt;Device n" style="ellipse;whiteSpace=wrap;html=1;fillColor=#fff2cc;strokeColor=#d6b656;fontSize=13;" vertex="1" parent="1">
          <mxGeometry x="450" y="300" width="100" height="60" as="geometry" />
        </mxCell>
        <mxCell id="DoYQl6slMKIn1db2F5ta-14" value="" style="endArrow=classic;startArrow=classic;html=1;exitX=1.042;exitY=0.075;exitDx=0;exitDy=0;exitPerimeter=0;fontSize=13;" edge="1" parent="1" source="DoYQl6slMKIn1db2F5ta-1">
          <mxGeometry width="50" height="50" relative="1" as="geometry">
            <mxPoint x="350" y="225" as="sourcePoint" />
            <mxPoint x="440" y="165" as="targetPoint" />
          </mxGeometry>
        </mxCell>
        <mxCell id="DoYQl6slMKIn1db2F5ta-15" value="" style="endArrow=classic;startArrow=classic;html=1;fontSize=13;" edge="1" parent="1">
          <mxGeometry width="50" height="50" relative="1" as="geometry">
            <mxPoint x="330" y="239.66" as="sourcePoint" />
            <mxPoint x="440" y="239.66" as="targetPoint" />
          </mxGeometry>
        </mxCell>
        <mxCell id="DoYQl6slMKIn1db2F5ta-16" value="" style="endArrow=classic;startArrow=classic;html=1;entryX=1;entryY=0.75;entryDx=0;entryDy=0;fontSize=13;" edge="1" parent="1">
          <mxGeometry width="50" height="50" relative="1" as="geometry">
            <mxPoint x="440" y="320" as="sourcePoint" />
            <mxPoint x="330" y="270" as="targetPoint" />
          </mxGeometry>
        </mxCell>
        <mxCell id="DoYQl6slMKIn1db2F5ta-17" value="" style="endArrow=classic;startArrow=classic;html=1;fontSize=13;" edge="1" parent="1">
          <mxGeometry width="50" height="50" relative="1" as="geometry">
            <mxPoint x="560" y="480" as="sourcePoint" />
            <mxPoint x="650" y="420" as="targetPoint" />
          </mxGeometry>
        </mxCell>
        <mxCell id="DoYQl6slMKIn1db2F5ta-18" value="" style="endArrow=classic;startArrow=classic;html=1;fontSize=13;" edge="1" parent="1">
          <mxGeometry width="50" height="50" relative="1" as="geometry">
            <mxPoint x="560" y="510" as="sourcePoint" />
            <mxPoint x="650" y="510" as="targetPoint" />
          </mxGeometry>
        </mxCell>
        <mxCell id="DoYQl6slMKIn1db2F5ta-19" value="" style="endArrow=classic;startArrow=classic;html=1;entryX=1;entryY=0.75;entryDx=0;entryDy=0;fontSize=13;" edge="1" parent="1">
          <mxGeometry width="50" height="50" relative="1" as="geometry">
            <mxPoint x="660" y="580" as="sourcePoint" />
            <mxPoint x="560" y="525" as="targetPoint" />
          </mxGeometry>
        </mxCell>
        <mxCell id="DoYQl6slMKIn1db2F5ta-20" value="" style="endArrow=classic;startArrow=classic;html=1;entryX=0;entryY=0.4;entryDx=0;entryDy=0;entryPerimeter=0;fontSize=13;" edge="1" parent="1" target="DoYQl6slMKIn1db2F5ta-4">
          <mxGeometry width="50" height="50" relative="1" as="geometry">
            <mxPoint x="320" y="480" as="sourcePoint" />
            <mxPoint x="370" y="430" as="targetPoint" />
          </mxGeometry>
        </mxCell>
        <mxCell id="DoYQl6slMKIn1db2F5ta-23" value="" style="rounded=0;whiteSpace=wrap;html=1;glass=0;fillColor=none;dashed=1;strokeWidth=2;strokeColor=#FF0000;fontSize=13;" vertex="1" parent="1">
          <mxGeometry x="290" y="100" width="310" height="270" as="geometry" />
        </mxCell>
        <mxCell id="DoYQl6slMKIn1db2F5ta-24" value="" style="rounded=0;whiteSpace=wrap;html=1;glass=0;fillColor=none;dashed=1;strokeWidth=2;strokeColor=#0000FF;fontSize=13;" vertex="1" parent="1">
          <mxGeometry x="290" y="390" width="490" height="270" as="geometry" />
        </mxCell>
        <mxCell id="DoYQl6slMKIn1db2F5ta-25" value="Architecture 1" style="text;html=1;strokeColor=none;fillColor=none;align=center;verticalAlign=middle;whiteSpace=wrap;rounded=0;glass=0;dashed=1;fontSize=15;fontColor=#FF0000;" vertex="1" parent="1">
          <mxGeometry x="310" y="120" width="120" height="20" as="geometry" />
        </mxCell>
        <mxCell id="DoYQl6slMKIn1db2F5ta-26" value="&lt;span style=&quot;font-family: &amp;#34;helvetica&amp;#34; ; font-size: 15px ; font-style: normal ; font-weight: 400 ; letter-spacing: normal ; text-align: center ; text-indent: 0px ; text-transform: none ; word-spacing: 0px ; background-color: rgb(248 , 249 , 250) ; display: inline ; float: none&quot;&gt;Architecture 2&lt;/span&gt;" style="text;whiteSpace=wrap;html=1;fontSize=15;fontColor=#0000FF;" vertex="1" parent="1">
          <mxGeometry x="440" y="570" width="120" height="30" as="geometry" />
        </mxCell>
      </root>
    </mxGraphModel>
  </diagram>
</mxfile>
